<svg id="visual" viewBox="0 0 900 600" width="900" height="600" xmlns="http://www.w3.org/2000/svg" xmlns:xlink="http://www.w3.org/1999/xlink" version="1.1"><g><g transform="translate(362 495)"><path d="M79.5 -45.7C89 -29.4 73.1 1.8 55.6 25.7C38.1 49.6 19.1 66.2 -7.3 70.4C-33.7 74.7 -67.4 66.5 -80.8 45C-94.1 23.5 -87.1 -11.4 -70.3 -31.9C-53.4 -52.4 -26.7 -58.6 4.1 -61C35 -63.4 70 -62 79.5 -45.7Z" stroke="#ECF2FF" fill="none" stroke-width="20"></path></g><g transform="translate(708 278)"><path d="M45.5 -20.3C59.5 -1.9 71.9 23.3 64 42.3C56.2 61.2 28.1 73.7 -0.8 74.2C-29.8 74.7 -59.5 63.1 -67.6 44.1C-75.7 25 -62.1 -1.5 -47.2 -20.3C-32.4 -39.1 -16.2 -50.2 -0.2 -50.1C15.7 -50 31.5 -38.6 45.5 -20.3Z" stroke="#ECF2FF" fill="none" stroke-width="20"></path></g><g transform="translate(122 88)"><path d="M55.4 -31.8C66.7 -12.4 67.2 13.3 56.2 27.8C45.2 42.3 22.6 45.5 1.3 44.7C-19.9 44 -39.8 39.2 -46.7 27.1C-53.6 15 -47.5 -4.4 -37.5 -23C-27.6 -41.6 -13.8 -59.4 4.1 -61.8C22.1 -64.2 44.1 -51.2 55.4 -31.8Z" stroke="#ECF2FF" fill="none" stroke-width="20"></path></g><g transform="translate(808 29)"><path d="M55.9 -32.3C69.6 -8.5 75.9 19.5 65.4 38.2C54.9 56.9 27.4 66.3 2.7 64.7C-22.1 63.2 -44.2 50.7 -54.1 32.4C-63.9 14.1 -61.6 -10 -50.5 -32.3C-39.5 -54.6 -19.7 -75.1 0.7 -75.5C21.1 -75.8 42.1 -56.2 55.9 -32.3Z" stroke="#ECF2FF" fill="none" stroke-width="20"></path></g><g transform="translate(707 575)"><path d="M38.5 -23.8C47.8 -6.2 51.8 13 44.5 26.8C37.2 40.6 18.6 49.1 -4.6 51.8C-27.7 54.4 -55.5 51.2 -69.4 33.6C-83.2 16 -83.2 -16 -69.4 -36.3C-55.5 -56.6 -27.7 -65.1 -6.6 -61.3C14.6 -57.5 29.2 -41.4 38.5 -23.8Z" stroke="#ECF2FF" fill="none" stroke-width="20"></path></g><g transform="translate(16 406)"><path d="M50.4 -32.4C58.8 -14.4 54.8 7.4 44.3 23.9C33.8 40.4 16.9 51.5 0.6 51.2C-15.7 50.8 -31.5 39 -42.4 22.3C-53.3 5.6 -59.4 -16.1 -51.5 -33.7C-43.6 -51.3 -21.8 -64.9 -0.4 -64.6C20.9 -64.4 41.9 -50.3 50.4 -32.4Z" stroke="#ECF2FF" fill="none" stroke-width="20"></path></g><g transform="translate(377 93)"><path d="M73.3 -40.9C88.7 -15.8 90.4 18.7 75.9 46.5C61.3 74.3 30.7 95.4 4.2 93C-22.4 90.6 -44.7 64.7 -59 37C-73.3 9.4 -79.5 -20 -68.3 -42.8C-57.1 -65.6 -28.5 -81.7 0.2 -81.8C29 -82 58 -66.1 73.3 -40.9Z" stroke="#ECF2FF" fill="none" stroke-width="20"></path></g></g></svg>