<svg id="visual" viewBox="0 0 900 600" width="900" height="600" xmlns="http://www.w3.org/2000/svg" xmlns:xlink="http://www.w3.org/1999/xlink" version="1.1"><g><g transform="translate(612 221)"><path d="M62.2 -38C75.4 -13.1 77.2 16.3 65 43.8C52.7 71.3 26.3 97 0.3 96.8C-25.7 96.6 -51.4 70.6 -65.4 42C-79.4 13.5 -81.7 -17.5 -68.9 -42.2C-56 -66.8 -28 -85.2 -1.7 -84.2C24.5 -83.2 49.1 -62.8 62.2 -38Z" fill="none" stroke="#404258" stroke-width="20"></path></g><g transform="translate(514 543)"><path d="M69.3 -43.7C81.5 -18.9 77.3 11.6 63 31.8C48.7 51.9 24.4 61.6 -2.2 62.9C-28.7 64.1 -57.5 56.9 -71.4 37C-85.4 17 -84.6 -15.7 -70.2 -41.7C-55.9 -67.7 -27.9 -86.9 0.3 -87.1C28.6 -87.3 57.1 -68.4 69.3 -43.7Z" fill="none" stroke="#404258" stroke-width="20"></path></g><g transform="translate(32 153)"><path d="M55.9 -34.6C65.2 -16.2 60.5 8 48.9 27.9C37.2 47.7 18.6 63.3 -4.3 65.8C-27.2 68.3 -54.5 57.7 -67.7 37C-80.9 16.2 -80 -14.7 -66.4 -35.6C-52.7 -56.6 -26.4 -67.5 -1.5 -66.6C23.3 -65.7 46.6 -53 55.9 -34.6Z" fill="none" stroke="#404258" stroke-width="20"></path></g><g transform="translate(252 362)"><path d="M70.2 -44.8C80.5 -22.6 71.2 6.6 56.3 26.6C41.3 46.7 20.6 57.6 -3.9 59.8C-28.4 62.1 -56.7 55.6 -68 37.6C-79.4 19.7 -73.7 -9.8 -59.5 -34.2C-45.3 -58.7 -22.7 -78.1 3.6 -80.2C29.9 -82.3 59.8 -67.1 70.2 -44.8Z" fill="none" stroke="#404258" stroke-width="20"></path></g><g transform="translate(354 53)"><path d="M63.8 -42.9C74.4 -18.5 68.9 9.1 55.6 30.1C42.3 51.1 21.2 65.6 1.3 64.9C-18.6 64.1 -37.2 48.2 -46.6 29.4C-55.9 10.7 -56 -10.9 -46.7 -34.5C-37.4 -58.1 -18.7 -83.8 4 -86.1C26.6 -88.4 53.2 -67.2 63.8 -42.9Z" stroke="#404258" fill="none" stroke-width="20"></path></g><g transform="translate(877 11)"><path d="M62.6 -42.3C73.1 -18 67.9 9.1 54.9 35C41.8 61 20.9 85.7 1.6 84.8C-17.7 83.8 -35.4 57.3 -50.7 30C-66 2.8 -78.9 -25.1 -70.1 -48.5C-61.2 -71.9 -30.6 -90.8 -2.3 -89.5C26.1 -88.2 52.1 -66.7 62.6 -42.3Z" stroke="#404258" fill="none" stroke-width="20"></path></g><g transform="translate(886 391)"><path d="M66.2 -40.2C76 -21.3 67.3 6.3 53.2 29.4C39.1 52.5 19.5 71.1 0.1 71.1C-19.3 71 -38.6 52.2 -50.1 30.6C-61.5 9.1 -65.1 -15.3 -55.5 -34.2C-45.8 -53 -22.9 -66.4 2.6 -67.9C28.2 -69.4 56.4 -59.1 66.2 -40.2Z" stroke="#404258" fill="none" stroke-width="20"></path></g><g transform="translate(4 591)"><path d="M59 -27.6C76.3 -4.1 90 27.9 79.6 49.4C69.2 70.9 34.6 81.9 -1.7 82.9C-37.9 83.9 -75.9 74.8 -94.3 48.7C-112.8 22.5 -111.7 -20.7 -92.8 -45.1C-73.8 -69.5 -36.9 -75.1 -8 -70.5C20.9 -65.9 41.7 -51 59 -27.6Z" stroke="#404258" fill="none" stroke-width="20"></path></g></g></svg>